<svg xmlns="http://www.w3.org/2000/svg" viewBox="44 106 316.07 70">

 <g>
  <title>Layer 1</title>
  <rect id="svg_1" height="68" width="60" y="107" x="45" stroke="#000" fill="#fff"/>
  <line stroke-width="5" id="svg_3" y2="125" x2="91.20459" y1="125" x1="58" stroke="#000" fill="none"/>
  <line stroke-width="5" id="svg_4" y2="140" x2="91.20459" y1="140" x1="58" stroke="#000" fill="none"/>
  <line stroke-width="5" id="svg_6" y2="155" x2="91.20459" y1="155" x1="58" stroke="#000" fill="none"/>
  <rect id="svg_7" height="68" width="60" y="107" x="133" stroke="#000" fill="#fff"/>
  <rect id="svg_11" height="60" width="111" y="111" x="248.04203" stroke="#000" fill="#fff"/>
  <g id="svg_20">
   <line stroke-width="5" id="svg_8" y2="125" x2="179.20459" y1="125" x1="146" stroke="#000" fill="none"/>
   <line stroke-width="5" id="svg_9" y2="140" x2="179.20459" y1="140" x1="146" stroke="#000" fill="none"/>
   <line stroke-width="5" id="svg_10" y2="155" x2="179.20459" y1="155" x1="146" stroke="#000" fill="none"/>
  </g>
  <text xml:space="preserve" text-anchor="start" font-family="Noto Sans JP" font-size="24" stroke-width="0" id="svg_30" y="146" x="113" stroke="#000" fill="#000000">+</text>
  <text style="cursor: move;" xml:space="preserve" text-anchor="start" font-family="Noto Sans JP" font-size="24" stroke-width="0" id="svg_31" y="146" x="211.0051" stroke="#000" fill="#000000">-&gt;</text>
  <g id="svg_32">
   <line stroke-width="5" id="svg_21" y2="121" x2="300.20459" y1="121" x1="255" stroke="#000" fill="none"/>
   <line stroke-width="5" id="svg_22" y2="141.42094" x2="300.20459" y1="141.42094" x1="255" stroke="#000" fill="none"/>
   <line stroke-width="5" id="svg_23" y2="161.84188" x2="300.20459" y1="161.84188" x1="255" stroke="#000" fill="none"/>
  </g>
  <g id="svg_36">
   <line stroke-width="5" id="svg_33" y2="121" x2="352.24304" y1="121" x1="307.03845" stroke="#000" fill="none"/>
   <line stroke-width="5" id="svg_34" y2="141.42094" x2="352.24304" y1="141.42094" x1="307.03845" stroke="#000" fill="none"/>
   <line stroke-width="5" id="svg_35" y2="161.84188" x2="352.24304" y1="161.84188" x1="307.03845" stroke="#000" fill="none"/>
  </g>
 </g>
</svg>