<svg xmlns="http://www.w3.org/2000/svg" viewBox="44 106 316.07 70">

 <g>
  <title>Layer 1</title>
  <rect id="svg_1" height="68" width="60" y="107" x="45" stroke="#000" fill="#fff"/>
  <line stroke-width="5" id="svg_3" y2="125" x2="91.20459" y1="125" x1="58" stroke="#000" fill="none"/>
  <line stroke-width="5" id="svg_4" y2="140" x2="91.20459" y1="140" x1="58" stroke="#000" fill="none"/>
  <line stroke-width="5" id="svg_6" y2="155" x2="91.20459" y1="155" x1="58" stroke="#000" fill="none"/>
  <rect id="svg_7" height="68" width="60" y="107" x="133" stroke="#000" fill="#fff"/>
  <rect id="svg_11" height="60" width="111" y="111" x="248.04203" stroke="#000" fill="#fff"/>
  <g id="svg_20">
   <line stroke-width="5" id="svg_8" y2="125" x2="179.20459" y1="125" x1="146" stroke="#000" fill="none"/>
   <line stroke-width="5" id="svg_9" y2="140" x2="179.20459" y1="140" x1="146" stroke="#000" fill="none"/>
   <line stroke-width="5" id="svg_10" y2="155" x2="179.20459" y1="155" x1="146" stroke="#000" fill="none"/>
  </g>
  <g id="svg_25">
   <line stroke-width="3" id="svg_21" y2="129" x2="290.20459" y1="129" x1="266" stroke="#000" fill="none"/>
   <line stroke-width="3" id="svg_22" y2="139.9343" x2="290.20459" y1="139.9343" x1="266" stroke="#000" fill="none"/>
   <line stroke-width="3" id="svg_23" y2="150.86859" x2="290.20459" y1="150.86859" x1="266" stroke="#000" fill="none"/>
  </g>
  <g id="svg_29">
   <line stroke-width="3" id="svg_26" y2="129" x2="340.20459" y1="129" x1="316" stroke="#000" fill="none"/>
   <line stroke-width="3" id="svg_27" y2="139.9343" x2="340.20459" y1="139.9343" x1="316" stroke="#000" fill="none"/>
   <line stroke-width="3" id="svg_28" y2="150.86859" x2="340.20459" y1="150.86859" x1="316" stroke="#000" fill="none"/>
  </g>
  <text xml:space="preserve" text-anchor="start" font-family="Noto Sans JP" font-size="24" stroke-width="0" id="svg_30" y="146" x="113" stroke="#000" fill="#000000">+</text>
  <text style="cursor: move;" xml:space="preserve" text-anchor="start" font-family="Noto Sans JP" font-size="24" stroke-width="0" id="svg_31" y="146" x="211.0051" stroke="#000" fill="#000000">-&gt;</text>
 </g>
</svg>